<?xml version="1.0" standalone="no"?>
<!DOCTYPE svg PUBLIC "-//W3C//DTD SVG 20010904//EN"
 "http://www.w3.org/TR/2001/REC-SVG-20010904/DTD/svg10.dtd">
<svg version="1.0" xmlns="http://www.w3.org/2000/svg"
 width="700.000000pt" height="700.000000pt" viewBox="0 0 700.000000 700.000000"
 preserveAspectRatio="xMidYMid meet">
<metadata>
Created by potrace 1.11, written by Peter Selinger 2001-2013
</metadata>
<g transform="translate(0.000000,700.000000) scale(0.100000,-0.100000)"
fill="#000000" stroke="none">
<path d="M0 3502 l0 -3502 874 874 874 874 875 -875 875 -875 876 876 876 876
870 -870 c478 -479 872 -870 875 -870 3 0 5 1570 5 3490 0 1920 -2 3490 -5
3490 -3 0 -788 -783 -1746 -1741 -957 -957 -1745 -1739 -1751 -1737 -5 2 -795
788 -1754 1748 l-1744 1744 0 -3502z"/>
</g>
</svg>
